<svg viewBox="0 0 529.93 272.41" xmlns="http://www.w3.org/2000/svg"><g fill="#231f20"><path d="m181.88 271.85v-28.08h17.19v4.56h-11.8v7h9.32v4.56h-9.32v12z"/><path d="m204.2 271.85 13-28.36h1.88l12.92 28.36h-6l-2.12-4.56h-11.6l-2.12 4.56zm10-9h7.8l-3.84-9z"/><path d="m273.63 271.85v-28.12l1.48-.36 12.12 14.92 12.12-14.92 1.44.36v28.12h-5.32v-15.72l-8 10.08h-.47l-8-9.88v15.52z"/><path d="m329.16 250a15.12 15.12 0 0 0 -6.32-1.92c-2.68 0-4.64 1.2-4.64 3.08s2.28 3.12 5.36 4.28c6.52 2.56 8.4 5.56 8.28 9-.12 5-4.64 8-10.16 7.92a16.09 16.09 0 0 1 -9.4-3.2l2-4.16a12.67 12.67 0 0 0 7 2.56c2.48 0 5.12-1 5.12-3 0-2.32-3.2-3.36-6.56-4.84-4.36-2-7.12-4.44-7.12-8.56s3.4-8 9.6-8a21.48 21.48 0 0 1 8.52 2.28z"/><path d="m241.87 243.37v28.31h5.49v-9.8h3.83l6 9.84h6.67l-6.73-10.47a8.13 8.13 0 0 0 5.11-7.54v-2.11a8.13 8.13 0 0 0 -8.13-8.13zm11 5.41c2 0 4 1.7 4 3.49v.83c0 1.79-2 3.5-4 3.5h-5.56v-7.82z"/><path d="m0 207v-63.14h38.7v10.26h-26.55v15.75h21v10.26h-21v26.87z"/><path d="m95.67 207h-38.16v-63.14h12.15v52.92h26z"/><path d="m141 142.6c19.53 0 33.57 14.76 33.57 32.85s-14 32.85-33.57 32.85-33.48-14.76-33.48-32.85 13.89-32.85 33.48-32.85zm0 54.63c10.71 0 20.52-8.37 20.52-21.78s-9.81-22-20.52-22-20.43 8.55-20.43 22 9.66 21.78 20.43 21.78z"/><path d="m295 186.7-8.64-20.34-8.73 20.34-4.32 10.08-4.75 10.22h-13.5l29.25-63.81h4.23l29.06 63.81h-13.4l-4.77-10.26z"/><path d="m385 198c-3.86 4.14-11.24 10.26-25 10.26-18.54 0-33.12-14.13-33.12-33 0-19.89 16.2-32.67 33.66-32.67a34 34 0 0 1 24.29 9.45l-7.37 8.82c-2.61-2.61-8.46-7.38-16.74-7.38-11.88 0-20.79 9.63-20.79 21.69 0 11.7 7.92 22 21 22a24.82 24.82 0 0 0 16.74-7.11z"/><path d="m437 186.7-8.64-20.34-8.73 20.34-4.32 10.08-4.73 10.22h-13.5l29.25-63.81h4.23l29.06 63.81h-13.41l-4.76-10.26z"/><path d="m513.72 207h-38.16v-63.14h12.15v52.92h26z"/><path d="m193.59 143.38v63.62h12.34v-22l8.6-.09 13.54 22.09h15l-15.14-23.5a18.28 18.28 0 0 0 11.49-17v-4.65a18.27 18.27 0 0 0 -18.28-18.28zm24.65 12.15c4.59 0 9.08 3.84 9.08 7.87v1.86c0 4-4.49 7.86-9.08 7.86h-12.5v-17.59z"/><path d="m257.06 0a53.57 53.57 0 1 0 53.57 53.57 53.56 53.56 0 0 0 -53.57-53.57zm-11 22.29c.62 0 8.46.38 11 8.11 2.52-7.77 10.39-8.13 11-8.14a0 0 0 0 1 .05 0h-.05c-.08.06-.28.53-.48 3.22-.26 3.57-2.09 7.67-6 9.07s-4.54 3.83-4.54 3.83-.6-2.39-4.51-3.79-5.74-5.51-6-9.07c-.2-2.69-.4-3.16-.48-3.23a0 0 0 0 1 .02 0zm8.94 62.53c.1-.61-1.54-2.38-1.91-2.86a25.39 25.39 0 0 0 -2.45-2.73 25.82 25.82 0 0 0 -5.72-4.17c-4.23-2.26-9.21-2.79-13.12-5.7a16.81 16.81 0 0 1 -5.25-7.1 39.08 39.08 0 0 1 -2.79-12.15l-.26-4.63 4 2a15.45 15.45 0 0 0 2.27.93 102.29 102.29 0 0 1 10.43 4.06 29.3 29.3 0 0 1 6.71 3.89 21.43 21.43 0 0 1 5.38 7c3.26 6.56 3.83 14.23 2.71 21.46zm2.06-20.82a20.18 20.18 0 0 0 -9.58-11.85c-6.41-3.61-6.64-14.7-6.51-18.7l3.62 1.55a31.71 31.71 0 0 1 7.49 4c2.7 2.12 4 5.78 4.95 9a.1.1 0 1 0 .06 0c.94-3.18 2.25-6.84 5-9a30.75 30.75 0 0 1 7.48-4l3.62-1.51c.13 4-.1 15.09-6.51 18.7a20.14 20.14 0 0 0 -9.62 11.81zm33.34-13.85a39.08 39.08 0 0 1 -2.79 12.15 16.87 16.87 0 0 1 -5.24 7.1c-3.92 2.91-8.89 3.44-13.12 5.7a26.11 26.11 0 0 0 -5.73 4.17 26.41 26.41 0 0 0 -2.44 2.73c-.37.48-2 2.25-1.91 2.86-1.17-7.23-.59-14.9 2.7-21.45a21.27 21.27 0 0 1 5.37-7 29.52 29.52 0 0 1 6.71-3.89 102.46 102.46 0 0 1 10.44-4.06 15.8 15.8 0 0 0 2.26-.93l4-2z"/><path d="m514.26 145.12h-3v-1.26h7.25v1.26h-3v8h-1.32zm6.32-1.26h1.42l3.3 5.06 3.26-5.06h1.38v9.23h-1.29v-7.09l-3.29 5h-.18l-3.27-5v7.07h-1.32z"/></g><script xmlns="" id="bw-fido2-page-script"/></svg>