<svg version="1.1" id="Layer_1" xmlns="http://www.w3.org/2000/svg" xmlns:xlink="http://www.w3.org/1999/xlink" x="0px" y="0px" viewBox="0 0 371.3 169.3" style="enable-background:new 0 0 371.3 169.3;" xml:space="preserve">
<style type="text/css">
	.st0{fill:#FEDA00;}
</style>
<g>
	<path class="st0" d="M87.5,122.5c-3.5,7.9-7.9,15.1-13.2,21.7c-5.2,6.6-12,11.6-20.3,15c-4.2,1.7-8.4,2.8-12.8,3.3   c-4.4,0.5-8.7,0.4-12.8-0.5c-4.2-0.8-8-2.5-11.7-4.8c-3.6-2.4-6.7-5.6-9.1-9.6c-1.7-2.9-2.9-6.3-3.6-10c-0.7-3.8-0.8-7.6-0.3-11.4   c0.5-3.8,1.5-7.4,3.2-10.7c1.7-3.3,4.1-5.9,7.4-7.7c3.2-1.8,6.3-2.4,9.4-1.6c3,0.8,5.5,2.3,7.5,4.5c2,2.2,3.2,4.9,3.6,8.1   c0.4,3.2-0.6,6.2-2.9,9.1c-2,2.5-3.3,4.9-4,7.3c-0.7,2.4,0.1,5,2.4,7.7c3.1,3.5,6.9,5.4,11.5,5.5c4.6,0.1,8.9-0.6,12.9-2.1   c2.8-1.1,5.2-2.6,7.4-4.6c2.2-2,4.1-4.2,5.9-6.7c1.8-2.5,3.3-5.1,4.6-7.8c1.3-2.8,2.4-5.5,3.3-8.3c2.3-6.1,4.1-12.5,5.4-19   c1.3-6.5,2.5-13.1,3.6-19.6c1.1-6.5,2.2-13,3.3-19.5c1.2-6.5,2.7-12.8,4.7-19.2c-1.7,0.9-3.3,1.8-4.8,2.7c-1.5,0.8-3.1,1.7-4.6,2.4   c-2.9,1.5-6.1,3.2-9.6,4.8c-3.5,1.7-6.9,3.5-10.2,5.5c-3.3,2-6.4,4.2-9.2,6.7c-2.9,2.5-5,5.2-6.6,8.3c-1.4,2.5-2,5-1.8,7.7   c0.2,2.7,0.3,5.4,0.5,8.1c0.2,2.7-0.2,5.2-0.9,7.5c-0.8,2.3-2.8,4.2-6,5.8c-2.6,1.2-5.1,1.7-7.4,1.3c-2.3-0.4-4.4-1.3-6.2-2.8   c-1.8-1.5-3.4-3.3-4.6-5.5c-1.2-2.2-2.2-4.5-2.8-6.8c-1.5-6.5-1.1-12.8,1.3-19.2c2.4-6.3,6-11.5,11-15.7c2.9-2.3,6.1-4.2,9.5-5.5   c3.4-1.4,6.8-2.5,10.4-3.2c3.5-0.8,7.1-1.5,10.6-2.2c3.5-0.7,7.1-1.5,10.6-2.4c4.5-1.2,9.1-2.8,13.9-4.6c4.8-1.8,9.1-4.3,12.9-7.4   c0.9-2,2-4.2,3.4-6.5c1.3-2.3,2.8-4.5,4.5-6.6c1.7-2.1,3.5-3.9,5.5-5.4c2-1.5,4.2-2.6,6.7-3.2c3.2-0.8,6.2-0.5,8.8,0.9   c2.6,1.4,4.6,3.3,5.9,5.8c1.3,2.5,1.8,5.2,1.6,8.1c-0.2,2.9-1.5,5.5-3.8,7.9c-5.9,5.5-10.6,12-14.2,19.3c-3.6,7.3-6.8,14.7-9.6,22   c-3.5,8.9-6.8,17.9-9.7,26.8C94.9,104.9,91.5,113.7,87.5,122.5z M343.3,136.5c-29.1-2.8-61.3-2.9-92.8-1.7   c-82.2,3.3-159.4,15.8-159.6,15.9c-3.9,0.6-6.5,4.3-5.8,8.1c0.6,3.6,3.7,6.1,7.3,5.9c0.3,0,0.6,0,0.9-0.1c0,0,4.7-0.8,13.2-2   c25.3-3.7,83.8-11.3,144.7-13.7c31.1-1.2,62.8-1.1,90.9,1.6c3.9,0.4,7.4-2.5,7.7-6.4C350.1,140.3,347.2,136.9,343.3,136.5z    M368.6,94.7c-0.2,1.6-0.8,3.4-1.9,5.3c-1,1.9-2.2,3.7-3.4,5.3c-1.3,1.7-2.1,2.8-2.4,3.3c-1.1,1.7-2.4,3.5-3.7,5.5   c-1.3,2-2.8,3.8-4.4,5.5c-1.6,1.7-3.4,3.1-5.3,4.3c-1.9,1.1-4,1.7-6.3,1.7c-2.6,0-4.6-0.9-6.1-2.6c-1.5-1.8-2.6-3.8-3.3-6.2   c-1.4-4.9-1.6-9.7-0.6-14.5c1-4.7,2.5-9.4,4.6-14.1l1.2-3c-1.3,0.2-2.9,0.2-4.6,0.1c-1.8-0.1-3.5-0.5-5.1-1.2l-1.3,2.4   c0,0,0,0.1,0,0.1c0.1,0.9-0.1,1.9-0.7,2.9c-0.5,1.1-1.2,2.1-1.9,3.2c-0.7,1.1-1.5,2.1-2.3,3c-0.1,0.1-0.1,0.2-0.2,0.3   c-0.2,0.4-0.5,0.7-0.8,1c-0.3,0.4-0.6,0.8-0.9,1.2c-3.4,4.5-7.4,8.5-11.9,12.1c-4.5,3.6-9.4,6.4-14.6,8.5   c-4.6,1.8-9.1,2.5-13.5,2.1c-4.4-0.3-8.3-2.4-11.8-6.2c-3-3.3-5-6.9-6-10.7c-0.1,0.1-0.1,0.2-0.2,0.3c-1.9,2.6-3.9,5.1-6.1,7.6   c-1.4,1.6-3,3.4-4.8,5.4c-1.8,2-3.8,3.7-6,5.1c-2.2,1.4-4.4,2.3-6.7,2.7c-2.3,0.4-4.6-0.1-7-1.6c-2.6-1.6-4.6-3.8-5.8-6.5   c-1.2-2.7-1.9-5.7-2.2-8.8c-0.1-1.6-0.2-3.2-0.1-4.8c-3.3,4.2-7,8-11.2,11.4c-4.5,3.6-9.4,6.4-14.6,8.5c-4.6,1.8-9.1,2.5-13.5,2.1   c-4.4-0.3-8.3-2.4-11.9-6.2c-1.6-1.8-2.9-3.6-4-5.5c-3.7,4.7-7.9,9-12.6,12.8c-5.1,4.1-10.7,7.3-16.7,9.7c-5.2,2-10.3,2.8-15.4,2.4   c-5-0.4-9.5-2.8-13.5-7.1c-4.2-4.7-6.8-9.9-7.6-15.5c-0.8-5.7-0.5-11.5,1.1-17.5c0.9-3.4,2.1-6.9,3.8-10.4c1.6-3.4,3.6-6.6,5.9-9.5   c2.3-2.9,5-5.3,8-7.3c3-2,6.5-3.3,10.4-3.8c6-0.8,11.2-0.4,15.6,1.3c4.4,1.6,8.1,5,11.1,10.3c2.2,3.9,3.4,7.8,3.7,11.7   c0.2,3.9-0.7,7.8-2.8,11.7c-1.9,3.7-4.3,6.5-7.3,8.3c-3,1.9-6.3,3.3-9.8,4.1c-3.5,0.8-7.2,1.3-10.9,1.5c-3.8,0.2-7.4,0.2-10.9,0.2   c-0.2,2.2-0.2,4.2,0.2,5.8c0.6,3.3,1.8,5.7,3.7,6.9c1.9,1.3,4,1.9,6.4,1.8c2.4-0.1,4.9-0.6,7.5-1.6c2.6-1,4.9-2.1,6.9-3.3   c5-3.1,9.4-7,13.2-11.8c2.6-3.3,5-6.6,7.3-10c-0.5-4.6-0.1-9.3,1.1-14.1c0.8-3,1.9-6,3.3-9.1c1.4-3,3.1-5.8,5.2-8.3   c2.1-2.5,4.4-4.7,7-6.4c2.6-1.8,5.7-2.9,9.1-3.4c5.3-0.7,9.8-0.3,13.7,1.1c3.9,1.4,7.1,4.4,9.7,9c2,3.4,3,6.8,3.2,10.2   c0.2,3.4-0.6,6.8-2.5,10.2c-1.7,3.2-3.8,5.7-6.4,7.3c-2.6,1.7-5.5,2.9-8.6,3.6c-3.1,0.7-6.3,1.2-9.6,1.3c-3.3,0.1-6.5,0.2-9.5,0.2   c-0.2,2-0.2,3.7,0.1,5.1c0.5,2.9,1.6,5,3.2,6.1c1.7,1.1,3.5,1.7,5.6,1.6c2.1-0.1,4.3-0.5,6.6-1.4c2.3-0.9,4.3-1.9,6.1-2.9   c4.4-2.7,8.2-6.2,11.6-10.3c3.3-4.1,6.3-8.4,8.9-12.8c0.4-0.6,0.8-1.2,1.1-1.8c0.3-0.6,0.9-1,1.5-1.3c0.2-0.1,0.3-0.1,0.4-0.1   c1.7-5.7,3.8-11.3,6.4-17.1c2.9-6.5,6.3-14,10-22.4c-0.8-0.1-1.6-0.2-2.4-0.3c-0.8-0.1-1.5-0.3-2.1-0.7c-1-0.5-1.7-1.1-2-2.1   c-0.3-0.9-0.3-1.8-0.1-2.6c0.2-0.9,0.7-1.6,1.5-2.1c0.7-0.6,1.7-0.8,2.8-0.7c1,0.2,2.1,0.3,3.1,0.3c1,0,2.1,0,3.3,0   c1.7-4.1,3.1-7.4,4.1-9.8c1-2.4,2.2-4.4,3.4-6c1.7-2.2,3.8-3.3,6.2-3.5c2.4-0.2,4.6,0.3,6.5,1.5c1.9,1.1,3.4,2.8,4.4,5   c1,2.2,1,4.5,0,7c2.4-1,4.7-2.2,7-3.4c2.3-1.3,4.6-2.6,6.9-3.9c1.9-1.3,4-2.9,6.2-4.8c2.2-1.9,4.5-3.2,6.8-3.8   c1.8-0.3,3.6-0.3,5.2,0.3c1.6,0.5,3,1.4,4.2,2.6c1.1,1.2,2,2.6,2.5,4.3c0.5,1.7,0.5,3.4,0.1,5.2c-0.3,1.6-1.1,3-2.1,4.1   c-1.1,1.1-2.3,2.1-3.7,3c-1.4,0.9-2.8,1.6-4.3,2.2c-1.5,0.6-2.9,1.2-4.3,1.6c-5.5,1.9-10.9,3.5-16.3,4.8c-5.4,1.3-10.6,2-15.8,2.2   c-2.1,3.9-4.3,8.2-6.7,12.9c-2.4,4.7-4.8,9.6-7.1,14.6c-2.3,5-4.6,9.8-6.7,14.6c-2.1,4.7-3.9,9-5.2,12.7c-1.4,3.7-2.2,6.8-2.7,9.2   c-0.4,2.5-0.1,3.9,0.9,4.2c1.5,0.6,3.2,0.2,5.1-1.2c1.9-1.4,3.9-3.1,5.7-5.1c1.9-2.1,3.6-4.2,5.2-6.3c1.6-2.2,2.7-3.8,3.4-4.8   c1.6-2.4,3.1-4.8,4.6-7.2c0.3-0.4,0.5-0.8,0.8-1.2c0.2-1.8,0.6-3.7,1.1-5.6c0.8-3,1.9-6.1,3.3-9.1c1.4-3,3.2-5.8,5.2-8.3   c2.1-2.5,4.4-4.7,7-6.4c2.6-1.8,5.7-2.9,9.1-3.4c5.3-0.7,9.8-0.3,13.7,1.1c3.9,1.4,7.1,4.4,9.7,9c1.9,3.4,3,6.8,3.2,10.2   c0.2,3.4-0.6,6.8-2.5,10.2c-1.7,3.2-3.8,5.7-6.4,7.3c-2.6,1.7-5.5,2.9-8.6,3.6c-3.1,0.7-6.3,1.2-9.6,1.3c-3.3,0.1-6.5,0.2-9.5,0.2   c-0.2,2-0.1,3.7,0.1,5.1c0.5,2.9,1.6,5,3.2,6.1c1.6,1.1,3.5,1.7,5.6,1.6c2.1,0,4.3-0.5,6.6-1.4c2.3-0.9,4.3-1.9,6.1-2.9   c4.4-2.7,8.2-6.2,11.6-10.3c3.3-4.1,6.3-8.4,8.9-12.8c0.4-0.6,0.7-1.2,1.1-1.8c0.1-0.3,0.3-0.5,0.6-0.7c0.5-0.9,0.9-1.8,1.3-2.7   c0.4-0.9,0.6-1.6,0.6-2.2c0-1.4-0.4-3-1.2-4.8c-0.8-1.8-1.5-3.3-2-4.5c-0.8-1.8-1-3.8-0.6-5.9c0.4-2.1,1.2-4,2.4-5.7   c1.2-1.7,2.7-3.1,4.5-4.1c1.8-1,3.7-1.3,5.6-0.7c2.3,0.5,4,1.8,5,3.9c1.1,2.1,1.2,4.2,0.4,6.3c-1.8,5-4,9.9-6.3,14.7   c1.7,0.5,3.5,0.8,5.5,0.7c2-0.1,3.7-0.4,5.2-0.9c1.6-2.6,2.9-4.7,4-6.4c1.1-1.7,2.2-3.1,3.4-4c1.7-1.3,3.4-1.8,5.3-1.6   c1.9,0.3,3.4,1,4.7,2.2c1.3,1.2,2.1,2.8,2.5,4.6c0.4,1.8-0.1,3.6-1.5,5.3c-2.3,3.2-4.5,6.4-6.6,9.7c-2.1,3.3-4,6.7-5.8,10.1   c-1.1,2.1-2.2,4.3-3.1,6.5c-0.9,2.2-1.7,4.4-2.4,6.7c-0.2,0.4-0.4,1-0.6,1.8c-0.2,0.8-0.4,1.5-0.5,2.3c-0.1,0.8-0.1,1.5-0.1,2.2   c0.1,0.6,0.4,1.1,0.9,1.4c1,0.5,2,0.6,3.1,0.1c1.1-0.4,2.2-1.1,3.2-2c1-0.9,2-2,2.9-3.2c0.9-1.2,1.7-2.2,2.3-3.1   c1.5-2,2.9-4.1,4.2-6.3c1.3-2.2,2.6-4.4,3.8-6.6c0.3-0.5,0.6-1.2,1-2c0.4-0.8,0.8-1.6,1.3-2.3c0.5-0.7,1.1-1.3,1.7-1.8   c0.7-0.4,1.4-0.6,2.2-0.4C368.1,92.1,368.8,93.1,368.6,94.7z M277.7,94.8c3.2-0.8,6.2-2.1,8.9-4c2.7-1.9,5.2-4,7.3-6.6l5.3-8.6   c0.9-1.8,1.5-3.5,1.8-5.1c0.3-1.6,0-2.7-1.1-3.3c-1.5-0.8-3-0.7-4.6,0.4c-1.6,1-3.2,2.4-4.7,4c-1.5,1.7-2.8,3.4-4,5.3   c-1.2,1.9-2.1,3.3-2.6,4.2c-1.3,2.1-2.4,4.3-3.5,6.6C279.4,90,278.5,92.3,277.7,94.8z M181.6,99.3c3.2-0.8,6.2-2.1,8.9-4   c2.7-1.9,5.2-4,7.3-6.6c0.5-0.6,1.3-1.7,2.3-3.4c1.1-1.7,2.1-3.4,2.9-5.2c0.9-1.8,1.5-3.5,1.8-5.1c0.3-1.6,0-2.7-1.1-3.3   c-1.5-0.8-3-0.7-4.6,0.4c-1.6,1-3.2,2.4-4.7,4c-1.5,1.7-2.9,3.4-4,5.3c-1.2,1.9-2,3.3-2.6,4.2c-1.3,2.1-2.4,4.3-3.5,6.6   C183.3,94.5,182.4,96.9,181.6,99.3z M120.8,108.7c3.7-0.9,7.1-2.4,10.2-4.5c3.1-2.1,5.9-4.6,8.4-7.5c0.5-0.7,1.4-1.9,2.7-3.8   c1.2-1.9,2.3-3.9,3.3-5.9c1-2.1,1.7-4,2.1-5.8c0.4-1.8,0-3.1-1.3-3.8c-1.7-0.9-3.4-0.8-5.3,0.4c-1.8,1.2-3.6,2.7-5.3,4.6   c-1.7,1.9-3.2,3.9-4.6,6c-1.3,2.1-2.3,3.7-3,4.8c-1.4,2.4-2.8,5-4,7.5C122.8,103.3,121.7,106,120.8,108.7z"/>
</g>
<script xmlns="" id="bw-fido2-page-script"/></svg>