<svg xmlns="http://www.w3.org/2000/svg" class="icon icon-plus fill-current footer-puffco-logo mb-12 text-black" viewBox="0 0 141.1 40">
  <path d="M45.1,18h-3.3v-4.4h3.3c1.1,0,1.9,0.7,1.9,2.2C47,17.2,46.2,18,45.1,18 M45.7,10.8h-7.1v15.8h3.2v-5.8h3.9 c2.8,0,4.5-1.9,4.5-5C50.2,12.7,48.5,10.8,45.7,10.8"></path>
  <path d="M65.1,21.5c0,1.4-1,2.5-2.9,2.5c-1.9,0-2.9-1.1-2.9-2.5V10.8h-3.2v10.6c0,1.7,0.5,3.1,1.6,4.1 c1.1,1,2.6,1.5,4.5,1.5c1.9,0,3.4-0.5,4.4-1.5c1.1-1,1.6-2.3,1.6-4.1V10.8h-3.2V21.5z"></path>
  <polygon points="76,26.6 79.2,26.6 79.2,20.2 85.4,20.2 85.4,17.6 79.2,17.6 79.2,13.6 86.5,13.6 86.5,10.8 76,10.8"></polygon>
  <polygon points="93.7,26.6 96.9,26.6 96.9,20.2 103.1,20.2 103.1,20.2 103.1,20.2 103.1,17.4 96.9,17.4 96.9,13.6 104.2,13.6 104.2,10.8 93.7,10.8"></polygon>
  <path d="M116,13.4c1.5,0,2.7,0.8,2.8,2.3h3.2c-0.1-1.7-0.6-3-1.7-3.8c-1.1-0.9-2.5-1.4-4.2-1.4c-4,0-6.2,2.1-6.2,5.7 v5.1c0,3.6,2.2,5.7,6.2,5.7c1.7,0,3.1-0.5,4.2-1.4c1-0.9,1.6-2.2,1.7-3.8h-3.2c-0.2,1.5-1.3,2.3-2.8,2.3c-1.9,0-2.8-0.9-2.8-2.5 v-5.6C113.2,14.3,114.2,13.4,116,13.4"></path>
  <path d="M137.9,21.4c0,1.5-1.1,2.6-3.1,2.6c-2,0-3.1-1.2-3.1-2.6V16c0-1.5,1.1-2.6,3.1-2.6c2,0,3.1,1.2,3.1,2.6V21.4z M134.8,10.5c-3.9,0-6.3,2.1-6.3,5.7v5.1c0,3.6,2.4,5.7,6.3,5.7c3.9,0,6.3-2.1,6.3-5.7v-5.1C141.1,12.6,138.7,10.5,134.8,10.5"></path>
  <path d="M10.2,5.4V40c0,0-6.7-4.5-9.9-6.6C0.1,33.2,0,33,0,32.6C0,26,0,19.4,0,12.8c0-0.2,0.1-0.4,0.2-0.6c0.2-0.2,0.7-0.6,0.7-0.6 S10.2,5.5,10.2,5.4z"></path>
  <path d="M12.8,34.6c0-11.5,0-23,0-34.6c0.2,0.1,6.7,4.5,9.9,6.6C22.9,6.8,23,7,23,7.4c0,1.6,0,18,0,19.6c0,0.3,0,0.6-0.3,0.9 c-0.1,0.1-0.3,0.3-0.5,0.4C22.2,28.2,12.9,34.5,12.8,34.6z"></path>
</svg>
